<svg width="45" height="45" viewBox="0 0 45 45" fill="none" xmlns="http://www.w3.org/2000/svg">
<path d="M33.75 22.5C27.5625 22.5 22.5 27.5625 22.5 33.75C22.5 39.9375 27.5625 45 33.75 45C39.9375 45 45 39.9375 45 33.75C45 27.5625 39.9375 22.5 33.75 22.5ZM37.9688 35.1562H35.1562V37.9688C35.1562 38.8125 34.5938 39.375 33.75 39.375C32.9062 39.375 32.3438 38.8125 32.3438 37.9688V35.1562H29.5312C28.6875 35.1562 28.125 34.5938 28.125 33.75C28.125 32.9062 28.6875 32.3438 29.5312 32.3438H32.3438V29.5312C32.3438 28.6875 32.9062 28.125 33.75 28.125C34.5938 28.125 35.1562 28.6875 35.1562 29.5312V32.3438H37.9688C38.8125 32.3438 39.375 32.9062 39.375 33.75C39.375 34.5938 38.8125 35.1562 37.9688 35.1562Z" fill="#010601"/>
<path d="M19.9687 36.5625H16.875V32.3438H19.8281C20.5313 25.3125 26.5781 19.6875 33.75 19.6875C38.3906 19.6875 42.4688 21.9375 45 25.3125V7.03125C45 6.1875 44.4375 5.625 43.5938 5.625H1.40625C0.5625 5.625 0 6.1875 0 7.03125V37.9688C0 38.8125 0.5625 39.375 1.40625 39.375H20.8125C20.5313 38.5312 20.1094 37.5469 19.9687 36.5625ZM37.9688 8.4375H42.1875V12.6562H37.9688V8.4375ZM30.9375 8.4375H35.1562V12.6562H30.9375V8.4375ZM23.9062 8.4375H28.125V12.6562H23.9062V8.4375ZM16.875 8.4375H21.0938V12.6562H16.875V8.4375ZM7.03125 36.5625H2.8125V32.3438H7.03125V36.5625ZM7.03125 12.6562H2.8125V8.4375H7.03125V12.6562ZM14.0625 36.5625H9.84375V32.3438H14.0625V36.5625ZM14.0625 12.6562H9.84375V8.4375H14.0625V12.6562Z" fill="#010601"/>
</svg>
