<svg width="100" height="400" viewBox="0 0 100 400" fill="none" xmlns="http://www.w3.org/2000/svg">
<path d="M0.5 0.5H99.5V399.5H0.5V0.5Z" fill="#010601" stroke="#010601"/>
<path d="M32 31C32 25.4772 36.4772 21 42 21H76C81.5228 21 86 25.4772 86 31V49C86 54.5228 81.5228 59 76 59H42C36.4772 59 32 54.5228 32 49V31Z" fill="#C7BCB6"/>
<path d="M32 111C32 105.477 36.4772 101 42 101H76C81.5228 101 86 105.477 86 111V129C86 134.523 81.5228 139 76 139H42C36.4772 139 32 134.523 32 129V111Z" fill="#C7BCB6"/>
<path d="M32 191C32 185.477 36.4772 181 42 181H76C81.5228 181 86 185.477 86 191V209C86 214.523 81.5228 219 76 219H42C36.4772 219 32 214.523 32 209V191Z" fill="#C7BCB6"/>
<path d="M32 271C32 265.477 36.4772 261 42 261H76C81.5228 261 86 265.477 86 271V289C86 294.523 81.5228 299 76 299H42C36.4772 299 32 294.523 32 289V271Z" fill="#C7BCB6"/>
<path d="M32 351C32 345.477 36.4772 341 42 341H76C81.5228 341 86 345.477 86 351V369C86 374.523 81.5228 379 76 379H42C36.4772 379 32 374.523 32 369V351Z" fill="#C7BCB6"/>
</svg>
