<svg width="100" height="400" viewBox="0 0 100 400" fill="none" xmlns="http://www.w3.org/2000/svg">
<path d="M0 0H100V400H0V0Z" fill="#1D1F20"/>
<path d="M14 31C14 25.4772 18.4772 21 24 21H58C63.5228 21 68 25.4772 68 31V49C68 54.5228 63.5228 59 58 59H24C18.4772 59 14 54.5228 14 49V31Z" fill="#C7BCB6"/>
<path d="M14 111C14 105.477 18.4772 101 24 101H58C63.5228 101 68 105.477 68 111V129C68 134.523 63.5228 139 58 139H24C18.4772 139 14 134.523 14 129V111Z" fill="#C7BCB6"/>
<path d="M14 191C14 185.477 18.4772 181 24 181H58C63.5228 181 68 185.477 68 191V209C68 214.523 63.5228 219 58 219H24C18.4772 219 14 214.523 14 209V191Z" fill="#C7BCB6"/>
<path d="M14 271C14 265.477 18.4772 261 24 261H58C63.5228 261 68 265.477 68 271V289C68 294.523 63.5228 299 58 299H24C18.4772 299 14 294.523 14 289V271Z" fill="#C7BCB6"/>
<path d="M14 351C14 345.477 18.4772 341 24 341H58C63.5228 341 68 345.477 68 351V369C68 374.523 63.5228 379 58 379H24C18.4772 379 14 374.523 14 369V351Z" fill="#C7BCB6"/>
</svg>
